<svg width="22" height="22" viewBox="0 0 22 22" xmlns="http://www.w3.org/2000/svg"><title>pajaro</title><path d="M0 13.88c0 .7.171 1.277.514 1.728.342.451.847.677 1.516.677.45 0 .835-.092 1.152-.276.401-.234.602-.551.602-.952 0-.652-.226-1.019-.677-1.103-.1.117-.184.284-.25.502l-.176.526c-.234-.1-.35-.368-.35-.802 0-.535.216-.802.65-.802.936 0 1.621.501 2.055 1.504.335.735.502 1.645.502 2.73 0 .118-.142.464-.426 1.04-.284.577-.426.924-.426 1.04v.953c.2-.067.359-.1.476-.1.183 0 .43.016.739.05.309.033.522.05.639.05.067-.585.292-1.353.676-2.306.084.167.134.36.15.577a3.59 3.59 0 0 1 0 .601c-.016.334-.024.543-.024.627 0 .434.2.651.601.651.535 0 1.086-.2 1.654-.601-.017-.167-.125-.543-.326-1.128-.167-.484-.25-.852-.25-1.102 0-.502.246-1.074.739-1.717.492-.643.981-.965 1.466-.965.367 0 1.002.318 1.904.953 0 .267-.025.672-.075 1.215-.05.543-.076.948-.076 1.215l-.25.25c-.317-.166-.434-.35-.35-.55-.084 0-.302.183-.652.55-.15-.116-.226-.241-.226-.375 0-.217.155-.514.464-.89.309-.376.497-.672.563-.89-.634-.317-.977-.475-1.027-.475-.234 0-.51.163-.827.488-.317.326-.476.606-.476.84 0 .434.234.818.702 1.152.417.284.86.426 1.328.426.902 0 1.737-.367 2.505-1.102.769-.735 1.153-1.554 1.153-2.456 0-.751-.3-1.353-.902-1.804-.367-.267-1.027-.555-1.98-.864-.952-.31-1.595-.59-1.929-.84.936-1.152 1.737-1.887 2.406-2.205.668-.317 1.737-.476 3.207-.476.25 0 .798.171 1.641.514.844.342 1.416.514 1.717.514l1.127-.076.075-.651-2.756-1.604c-1.403-.785-2.297-1.177-2.681-1.177-.1 0-.15.016-.15.05v.025c0 .05-.05.075-.15.075-.151 0-.301-.196-.452-.589-.15-.393-.342-.589-.576-.589a.703.703 0 0 0-.288.075.672.672 0 0 1-.263.076c-.167-.117-.25-.26-.25-.426 0-.167.137-.547.413-1.14.275-.594.48-.974.613-1.14.017-.134-.1-.201-.35-.201-.117 0-.36.192-.727.576a1.591 1.591 0 0 1-.188-.25 4.852 4.852 0 0 0-.188-.276c.184-.2.376-.501.576-.902-.116 0-.233-.058-.35-.175-.117.05-.263.167-.439.35-.175.184-.388.301-.639.351v-.476c.134-.083.318-.225.551-.426l-.35-.376c-.25.134-.585.527-1.003 1.178-.066-.167-.108-.702-.125-1.604-.1.05-.41.343-.927.877-.167-.066-.376-.225-.626-.476-.301-.317-.485-.5-.552-.551-.016.484-.033.768-.05.852a.897.897 0 0 1-.501.601c-.217-.1-.438-.296-.664-.589-.225-.292-.405-.48-.539-.563a2.477 2.477 0 0 0-.025.35c0 .084.021.218.063.401.042.184.063.318.063.401 0 .25-.076.443-.226.577-.234-.284-.618-.669-1.153-1.153l-.375.35c.15.151.35.402.6.752v.552c-.133.15-.258.225-.375.225-.15 0-.376-.117-.676-.35a17.99 17.99 0 0 1-.652-.527l-.35.376c.233.234.576.585 1.027 1.053 0 .167-.117.375-.351.626-.217-.317-.602-.752-1.153-1.303l-.676.175c.066.2.5.702 1.303 1.504l-.1.651a26.39 26.39 0 0 1-2.156-1.478l-.375.376c.785.802 1.72 1.578 2.806 2.33.735.485 1.478.969 2.23 1.453.852.585 1.503 1.17 1.955 1.754-.652.635-1.228.953-1.73.953-.35 0-1.114-.172-2.292-.514-1.178-.343-2.017-.514-2.518-.514-.785 0-1.412.418-1.88 1.253-.4.685-.601 1.453-.601 2.305zM1.027 12c0-.15.055-.313.163-.489.109-.175.163-.28.163-.313.033.017.075.167.125.451.034.184.234.276.602.276.05-.2.142-.493.275-.877l.702.025v.902c0 .234-.109.451-.326.651-.217.2-.45.301-.701.301-.251 0-.48-.092-.69-.276-.208-.183-.313-.4-.313-.651zm4.66-5.838c0-.819.494-1.629 1.48-2.43.935-.753 1.82-1.128 2.655-1.128.635 0 1.324.246 2.068.739.743.493 1.165 1.04 1.265 1.641l-1.203-.802c-.551-.384-.969-.576-1.253-.576-1.169 0-2.18.384-3.032 1.153-.902.801-1.286 1.779-1.152 2.931-.551-.568-.827-1.077-.827-1.528zm-4.81 9.045c0-.117.038-.259.113-.426.075-.167.113-.292.113-.376-.017.468.175.903.576 1.303.067-.183.217-.45.45-.801l.201.902-.802.2c-.434-.267-.651-.534-.651-.802zm6.69-8.168c0-.769.263-1.433.79-1.992.526-.56 1.165-.84 1.916-.84.552 0 1.136.23 1.754.69.618.459.927.956.927 1.49a.923.923 0 0 1-.1.389.861.861 0 0 0-.1.338v-.2c.033-.518-.184-.953-.651-1.304a2.53 2.53 0 0 0-1.554-.526c-.535 0-1.019.226-1.453.677-.435.45-.652.952-.652 1.503 0 .568.15.97.451 1.203.384.234.769.476 1.153.727-.05.15-.109.375-.176.676-.835-.45-1.386-.81-1.653-1.077-.435-.435-.652-1.02-.652-1.754zm-3.483 5.237c0-.2.071-.405.213-.614.142-.21.313-.313.514-.313.568 0 1.094.15 1.579.45l-.1.627c-.585-.234-1.011-.35-1.279-.35a.355.355 0 0 0-.35.225c.033.217.125.35.275.4.15.05.3.092.451.126 0 .1-.025.242-.075.426a6.77 6.77 0 0 0-.1.4H4.41c-.217-.634-.326-1.093-.326-1.377zm4.937-5.012c0-.467.15-.852.45-1.152.301-.301.685-.451 1.153-.451.418 0 .79.108 1.115.325.326.217.489.518.489.902 0 .502-.155.907-.464 1.216-.309.309-.714.463-1.215.463-1.019 0-1.528-.434-1.528-1.303zm4.685.126l.1-.777c.401.083.602.234.602.45-.2.201-.435.31-.702.327zm-4.084 3.733c0-.134.188-.422.564-.864.376-.443.622-.664.739-.664.167 0 .305.079.413.238a.856.856 0 0 1 .163.488c0 .318-.175.643-.526.977-.35.334-.693.535-1.027.602a3.08 3.08 0 0 0-.2-.376.848.848 0 0 1-.126-.401zm-3.508 3.358c0-.953.175-1.617.526-1.992.35-.376 1.002-.564 1.955-.564.651 0 1.106.159 1.365.476.26.317.389.81.389 1.478 0 .702-.284 1.278-.852 1.73a3.02 3.02 0 0 1-1.93.676c-.969 0-1.453-.602-1.453-1.804zm5.989-5.112c0-.434.283-.848.851-1.24.568-.393 1.078-.59 1.529-.59.835 0 1.754.243 2.756.728.852.417 1.712.843 2.581 1.277-2.489-.45-4.017-.676-4.585-.676-1.153 0-2.139.434-2.957 1.303 0-.084-.03-.213-.088-.389a1.407 1.407 0 0 1-.087-.413zm-6.69 10.7c0-.218.066-.498.2-.84.133-.343.275-.597.426-.764.05.05.138.108.263.175.125.067.213.125.263.175-.1.284-.259.702-.476 1.253h-.677zm.851-2.707c.217-.217.326-.426.326-.626.35.217.685.326 1.002.326.3 0 .577-.1.827-.301v.802c-.25.25-.376.442-.376.576 0 .033.13.25.389.651s.405.769.438 1.103c-.417.217-.685.317-.802.3h-.025a3.771 3.771 0 0 1-.075-.826v-.501c0-.334-.025-.618-.075-.852l-.25.025c-.686.016-1.145-.21-1.379-.677zm5.387-2.63c0-.05.092-.452.276-1.204.1.234.192.477.276.727.117.3.3.451.551.451.1 0 .2-.025.3-.075.05-.3.076-.501.076-.601 0-.084-.067-.167-.2-.251-.134-.083-.218-.159-.251-.225h.827c.217.4.325.71.325.927 0 .718-.292 1.077-.877 1.077-.334 0-.768-.25-1.303-.752v-.075zm2.03 1.929c0-.735.292-1.103.877-1.103.485 0 .727.242.727.727 0 .317-.226.584-.677.802l-.35.175a.192.192 0 0 0-.076.025c.017.033.025.1.025.2 0 .15-.025.335-.075.552-.3-.602-.45-1.061-.45-1.378zm-3.633-9.773c.083.134.171.268.263.401.092.134.23.2.413.2.067 0 .15-.008.25-.024l.076-1.078h-.676c-.05.117-.16.284-.326.501zM7.14 14.33c0 .284.088.535.263.752a.843.843 0 0 0 .69.326.93.93 0 0 0 .776-.401c.2-.267.3-.568.3-.902 0-.685-.291-1.028-.876-1.028-.769 0-1.153.418-1.153 1.253z" fill="#FFF" fill-rule="evenodd" opacity=".2"/></svg>