<svg width="22" height="22" viewBox="0 0 22 22" xmlns="http://www.w3.org/2000/svg"><title>pajaro 3</title><path d="M12.47 9.808c0 .637-.245 1.152-.736 1.545a2.632 2.632 0 0 1-1.691.588c-.262 0-.613-.208-1.055-.625-.441-.417-.662-.748-.662-.993 0-.13.225-.621.674-1.471.45-.85.675-1.34.675-1.472 0-2.762-.376-4.143-1.128-4.143-.589 0-1.373.09-2.354.27-1.046.18-1.806.367-2.28.563l5.59-2.599c.294.115.589.172.883.172h.171c-.081-.409-.482-.613-1.201-.613-.376 0-1.005.09-1.888.27.065-.23.18-.564.343-1.006.066.098.172.245.319.442.147 0 .22-.197.22-.589.164.016.385.164.663.441C9.11.425 9.307.228 9.6 0c.066.163.172.409.319.736.098-.164.286-.36.564-.589.016.164.073.409.172.736.114-.196.318-.393.613-.589v.957c-.67 1.226-1.006 2.157-1.006 2.795 0 1.013.188 1.92.564 2.721.147.295.507.842 1.079 1.643.376.54.564 1.006.564 1.398zm6.94 1.054c-.099.05-.336.066-.712.05-.638-.017-.883-.025-.736-.025h-.196c.131.229.413.453.846.674.433.22.666.437.699.65-.196 0-.703-.164-1.52-.49v.588c.065.049.278.188.637.417.245.147.417.327.515.54-.278-.115-.686-.36-1.226-.736-.147.147-.22.302-.22.466 0 .13.171.375.514.735l.736.687c-.31 0-.76-.23-1.349-.687-.163 0-.335.074-.514.22v.565c.523.327.915.694 1.176 1.103-.36-.098-1.136-.613-2.329-1.545a226.807 226.807 0 0 1-2.305-1.839.974.974 0 0 1-.147.123c-.049.033-.073.123-.073.27 0 .425.65 1.18 1.949 2.268 1.3 1.087 1.966 1.876 1.998 2.366-.065-.05-.261-.31-.588-.785-.262-.36-.482-.54-.662-.54 0 0-.05.01-.147.025a.487.487 0 0 0-.05.221c0 .36.27.81.81 1.349-.458-.115-.85-.45-1.177-1.006-.147.131-.22.254-.22.368 0 .098.097.286.293.564.213.327.335.523.368.589-.245-.033-.458-.188-.637-.466-.18-.278-.417-.417-.711-.417v.172c-.017.18.012.42.085.723.074.302.11.527.11.674-.18-.278-.498-.67-.956-1.177a.92.92 0 0 0-.098.417c0 .164.05.368.147.613.115.294.18.49.197.589a1.108 1.108 0 0 1-.785-.687c-.245-.556-.392-.866-.441-.932-.246.23-.368.4-.368.515 0 .18.049.425.147.736.114.36.18.605.196.735-.163-.065-.343-.294-.54-.686-.228-.458-.4-.744-.514-.858a2.425 2.425 0 0 0-.147.809c0 .098.008.229.024.392.017.164.025.286.025.368 0 .212-.098.384-.295.515a.608.608 0 0 1-.294-.49c.017.196.025-.009.025-.614 0-.376-.156-.703-.466-.98-.164.196-.294.539-.392 1.03-.131.62-.221.997-.27 1.127a.832.832 0 0 1-.22-.466 1.663 1.663 0 0 1-.025-.514c.016-.327.024-.507.024-.54 0-.36-.106-.621-.319-.785-.196.099-.4.393-.613.883-.13.343-.261.695-.392 1.055-.13-.082-.31-.205-.54-.368 1.21-2.158 1.815-4.193 1.815-6.106 0-.196-.147-.36-.441-.49a245.266 245.266 0 0 0-1.006 3.236c-.44 1.406-.907 2.387-1.397 2.943.016-.196.073-.425.171-.687.164-.408.254-.637.27-.686l-.122-.613a.602.602 0 0 0-.221-.05c-.18 0-.335.205-.466.614-.163.474-.343.776-.54.907a.653.653 0 0 1-.073-.294c0-.098.057-.274.172-.527.114-.254.171-.487.171-.7-.163.066-.38.21-.65.43s-.47.364-.6.429c.163-.376.45-.932.858-1.667l-.098-.515c-.687.49-1.112.98-1.275 1.47-.36 0-.54-.146-.54-.44 0-.246.352-.638 1.055-1.177 1.177-.867 1.83-1.357 1.961-1.472.687-.62 1.014-1.168.981-1.642-.572.13-1.332.613-2.28 1.446-1.21 1.046-1.945 1.651-2.207 1.815a.72.72 0 0 1-.024-.172c0-.18.171-.388.514-.625.344-.237.515-.478.515-.724a.86.86 0 0 0-.049-.27c-.196 0-.45.082-.76.246-.425.196-.67.31-.735.343.196-.343.539-.768 1.03-1.275v-.515c-.099-.065-.311-.09-.638-.073-.589.016-.826.032-.711.049l-.147-.025c.327 0 .727-.155 1.201-.466v-.098a.218.218 0 0 0 .025-.098c0-.098-.082-.147-.245-.147-.148 0-.36.045-.638.135-.278.09-.482.135-.613.135.343-.393 1.12-.777 2.33-1.153 1.634-.49 2.533-.776 2.697-.858 0-.31-.131-.466-.393-.466-.13 0-.363.074-.699.22-.335.148-.568.222-.698.222-.23 0-.483-.082-.76-.246-.278-.163-.417-.351-.417-.564 0-.85.253-1.863.76-3.04.605-1.357 1.267-2.035 1.986-2.035h1.79c.016.016.114.392.294 1.128.115.474.172.858.172 1.152 0 .425-.221 1.042-.662 1.851-.442.81-.662 1.468-.662 1.974 0 .769.261 1.373.784 1.815.474.425 1.104.637 1.888.637 1.128 0 1.888-.229 2.28-.686.344-.409.516-1.194.516-2.354 0-.523-.393-1.255-1.177-2.195-.785-.94-1.177-1.81-1.177-2.611 0-.294.703-1.57 2.108-3.825l.687.171c-.098.164-.204.458-.319.883.115-.033.31-.13.589-.294.228-.147.416-.22.564-.22.081 0 .155.024.22.073.017.016.025.033.025.049 0 .13-.164.335-.49.613l.147.588h.073c.082 0 .237-.049.466-.147.229-.098.4-.147.515-.147l.122.025c-.196.18-.44.498-.735.956.049.065.09.122.122.172.033.049.115.073.246.073.114 0 .327-.09.637-.27.31-.18.507-.278.589-.294 0 .31-.188.63-.564.956l.245.638c.18-.278.306-.441.38-.49.074-.05.306-.115.699-.197-.409.409-.605.793-.589 1.153v.147c.246 0 .63-.196 1.153-.589-.033.148-.14.368-.319.662-.18.295-.286.524-.319.687a.218.218 0 0 0 .098.025c.082 0 .237-.054.466-.16.229-.106.409-.16.54-.16-.23.442-.891.896-1.986 1.362-1.096.466-1.807 1.05-2.134 1.753.082.163.23.245.442.245.081 0 .682-.302 1.802-.907s1.876-.9 2.268-.883c-.213.229-.54.466-.98.711v.123c0 .147.105.22.318.22.114 0 .282-.02.503-.06.22-.042.388-.062.502-.062 0 .163-.09.278-.27.343-.114.05-.277.074-.49.074l-.392.367c.13.099.355.188.674.27.319.082.544.172.674.27-.261.033-.67.114-1.226.245.017.31.205.499.564.564.507.082.818.18.932.294zm-3.066-4.119c0-.523-.409-1.291-1.226-2.305-.703-.915-1.332-1.561-1.888-1.937v.687a123.794 123.794 0 0 1 3.09 3.678.403.403 0 0 0 .024-.123zM13.647 4.34c0-.245-.065-.417-.196-.515-.066.05-.303.155-.711.319-.278.098-.417.286-.417.564 0 .13.028.253.086.368a.72.72 0 0 1 .085.22h.687c.098-.147.2-.306.307-.478a.921.921 0 0 0 .159-.478zm1.03 1.152l-.147-.024c-.474 0-.867.27-1.177.81.147.13.327.195.54.195.408-.212.67-.54.784-.98zm.588 1.03c-.62.131-1.013.393-1.177.785 0 .147.041.253.123.319l.245.196c.18-.36.45-.793.81-1.3zm-5.124-4.095c0-.065-.009-.15-.025-.257a1.72 1.72 0 0 1-.024-.233h-.834c-.05.13-.074.27-.074.417 0 .065.008.16.025.282.016.122.024.216.024.282l.859-.147c.032-.115.049-.23.049-.344zm3.506 5.003c-.36-.442-.711-.891-1.054-1.35-.573-.735-.859-1.241-.859-1.52 0-.048.017-.097.05-.146 0 .098-.033.245-.099.44a1.557 1.557 0 0 0-.098.442c0 .605.209 1.157.626 1.655.416.499.83.985 1.238 1.46l.196-.981zm3.702 1.495c0 .066-.065-.204-.196-.809-.196.278-.457 1.075-.784 2.39-.327 1.317-.49 2.17-.49 2.563v.785c.49-.164.874-.9 1.152-2.207.212-.948.318-1.855.318-2.722zm-1.348.687l-1.128-.172c-.115.066-.27.172-.466.319l.074.662h1.348l.172-.81zm-7.675-6.89L7.64 2.5a8.353 8.353 0 0 0-.49.392l1.176-.171zm7.086 9.808v-.834c-.408-.409-.784-.621-1.128-.638-.212.23-.326.466-.343.712.327.31.817.563 1.471.76zM12.03 9.734l-.442-.784c-.719-1.259-1.242-2.477-1.569-3.654 0-.229.04.63.123 2.575l-.736.932c-.327.408-.49.743-.49 1.005 0 .932.4 1.398 1.201 1.398 1.275 0 1.913-.49 1.913-1.472zm-3.703-3.85c0-.13-.065-.355-.196-.674-.13-.318-.245-.535-.343-.65-.115.998-.295 1.88-.54 2.649-.098.278-.204.556-.319.834-.147.392-.22.662-.22.809 0 .278.106.474.319.588.866-1.226 1.3-2.411 1.3-3.555zM6.561 5.64l-.711-.172a.72.72 0 0 1-.086.22.762.762 0 0 0-.086.344c0 .294.188.441.564.441l.319-.833zm.27 1.3H5.26c-.016.375.098.596.343.661.442.098.687.172.736.22.327-.326.49-.62.49-.882zm6.375 7.968c0-.458-.385-1.046-1.153-1.765v.931c.36.785.67 1.26.932 1.423.147-.131.22-.327.22-.589zM5.972 8.46c-.229-.229-.408-.343-.54-.343-.228.229-.342.45-.342.662 0 .196.228.417.686.662.016-.114.053-.278.11-.49.058-.213.086-.376.086-.49zm5.444 7.307v-1.103c0-.18-.086-.433-.258-.76-.171-.327-.33-.556-.478-.687-.049.85-.139 1.741-.27 2.673l1.006-.123zm3.555-.098c-2.321.278-4.136.621-5.443 1.03 0 .441.065.776.196 1.005.163-.098.417-.147.76-.147.572 0 1.381-.196 2.427-.588 1.112-.442 1.798-.875 2.06-1.3zm-8.263-4.732h-.932c-.147 0-.274.073-.38.22a.626.626 0 0 0-.135.442v.024a.543.543 0 0 0 .172.025c.556 0 .98-.237 1.275-.711zm.441.76c-.588.098-1.079.245-1.471.441l.172.687c.13-.016.36-.172.686-.466.327-.294.531-.515.613-.662zm1.079 1.643a2.5 2.5 0 0 0-.662.368c-.278.228-.417.433-.417.613 0 .294.164.44.49.44h.074c.262-.277.433-.751.515-1.421zm-3.016.098l-1.005-1.79-.22.073 1.004 1.79.221-.073zm2.28 2.476c0-.18-.159-.445-.478-.797-.318-.351-.56-.51-.723-.478l-.172.662c.409.409.867.613 1.373.613zm3.948-6.179c0 .295-.098.54-.294.736a.998.998 0 0 1-.736.294c-.261 0-.555-.155-.882-.466V9.17c.212-.212.506-.318.882-.318.246 0 .478.085.7.257.22.172.33.38.33.625zM11 9.808c-.23-.36-.507-.54-.834-.54h-.049l-.147.883.687.172c.065-.115.18-.286.343-.515z" fill="#FFF" fill-rule="evenodd" opacity=".2"/></svg>