<svg width="22" height="22" viewBox="0 0 22 22" xmlns="http://www.w3.org/2000/svg"><title>pajaro2</title><path d="M18.392 4.807c0 1.06-.172 1.754-.515 2.082-.031 0-.054-.008-.07-.023-.078 0-.234.14-.468.42.016.172.187.258.515.258-.593 2.651-1.411 4.904-2.456 6.76.25-1.512.374-3.228.374-5.146 0-1.03-.133-1.778-.398-2.246-.358-.655-1.013-.982-1.965-.982-.343 0-.662.156-.959.468.219.514.538 1.017.96 1.509.42.49.686.853.795 1.087.234.468.35 1.107.35 1.918 0 1.06-.179 2.035-.537 2.924-.032.078-.227.46-.585 1.147-.297.592-.445.95-.445 1.076 0 .966.184 1.742.55 2.327.366.585.994 1.064 1.883 1.439h-.117c-.047 0-.538-.11-1.474-.328l1.053 1.053c-1.092-.094-2.253-.398-3.485-.912.467-.219.701-.484.701-.796 0-.327-.436-1.66-1.31-4-.187.25-.272.655-.257 1.217v.514c.016 1.092.156 1.95.421 2.573.374.702.749 1.412 1.123 2.129-.483-.359-.889-.593-1.216-.702.14.25.312.6.514 1.053a75.08 75.08 0 0 0-1.146-.655c-.468-.25-.873-.374-1.216-.374-.25 0-.492.046-.725.14.686-.64 1.029-1.357 1.029-2.152 0-.624-.148-1.232-.445-1.825-.561.733-1.419 1.833-2.573 3.299.11-.328.538-1.092 1.287-2.293.608-.982.904-1.778.889-2.386v-.14c-.593.031-1.232.647-1.918 1.848-.749 1.341-1.303 2.097-1.661 2.269.561-1.139 1.427-2.776 2.596-4.912-.592.093-1.2.647-1.824 1.66-.764 1.232-1.31 1.965-1.638 2.2.14-.39.663-1.217 1.567-2.48.796-1.139 1.225-1.942 1.287-2.41l-.094-.023c-.53-.031-1.208.53-2.035 1.684C3.647 16.59 3.062 17.376 3 17.44c.078-.624.702-1.59 1.871-2.9.406-.469 1.248-1.342 2.527-2.62 0-.25-.32-.469-.96-.656l-1.31-.327c.094-.39.188-.788.281-1.193.172-.562.398-.842.679-.842.202 0 .507.058.912.175.405.117.71.176.912.176.203 0 .437-.156.702-.468-.156-.484-.842-.686-2.058-.608-.078-.312-.117-.5-.117-.562 0-.187.085-.28.257-.28.171 0 .468.093.889.28.577.265.889.406.935.421.297-.218.445-.475.445-.772a1.514 1.514 0 0 0-.936-.62c-.39-.085-.772-.167-1.146-.245.14-.234.296-.351.468-.351.203 0 .507.031.912.093.406.063.71.094.912.094h.117v-.561c-.156-.14-.522-.312-1.099-.515-.483-.172-.78-.359-.889-.561.094-.032.203-.047.328-.047.218 0 .534.031.947.093.413.063.729.094.947.094a1.19 1.19 0 0 0 .024-.234c0-.296-.21-.515-.632-.655a31.954 31.954 0 0 1-1.006-.257.885.885 0 0 1 .608-.258c.125 0 .316.032.574.094.257.062.448.094.573.094.171 0 .335-.032.49-.094-.093-.218-.334-.483-.724-.795l-.89-.655c.578.124 1.53.49 2.855 1.1v-.703a11.945 11.945 0 0 0-1.1-.725c-.265-.14-.51-.28-.737-.42-.226-.141-.417-.367-.573-.68a7.516 7.516 0 0 1 2.106.96c.842.577 1.263 1.162 1.263 1.754 0 .156-.031.304-.094.445.53.14 1.365.218 2.503.234 1.076.03 1.832.117 2.27.257.046-.125.07-.257.07-.398 0-.14-.087-.553-.258-1.24.265.063.546.375.842.936.094-.14.148-.35.164-.631.015-.281.054-.476.117-.585.28 1.138.42 1.98.42 2.526zm-.515.866c0-.328-.109-.6-.327-.82a1.11 1.11 0 0 0-.819-.327c-.749 0-1.123.414-1.123 1.24 0 .374.133.78.398 1.217.187-.094.475-.164.865-.211.343-.031.577-.101.702-.21.203-.156.304-.453.304-.89zm-3.251-.117v-.82h-.304v.82h.304zm-1.146-.164l-.094-.936c-.14.031-.273.067-.398.105-.124.04-.187.145-.187.316 0 .343.226.515.679.515zm3.695 2.807a.844.844 0 0 0-.105-.421c-.07-.125-.105-.21-.105-.257h-.795v4.514c.67-2.167 1.005-3.446 1.005-3.836zm-4.725-2.69a7.156 7.156 0 0 0-.42-.632c-.344.312-.515.624-.515.936.109.016.202.023.28.023.234 0 .386-.039.456-.117.07-.078.137-.148.2-.21zm.421 5.637l-.187-3.438h-.304l.187 3.438h.304zm-.584-1.45c0-.203-.172-.776-.515-1.72-.343-.943-.57-1.446-.678-1.508v1.006c.467.25.701.64.701 1.17 0 .155-.027.393-.082.713-.054.32-.081.557-.081.713 0 .281.07.5.21.655.296-.42.445-.764.445-1.029zm1.637 2.316V9.977h-.304v2.035h.304zm-2.737-2.456c0-.67-.078-1.123-.234-1.357 0 .062-.039.191-.117.386a1.395 1.395 0 0 0-.117.503c0 .327.148.702.445 1.123l.023-.655zm.047-5.03c0-.046-.21-.39-.632-1.029-.467 2.449-.701 3.68-.701 3.696-.484 1.84-1.084 2.76-1.802 2.76-.171 0-.42-.058-.748-.175-.328-.117-.577-.176-.749-.176-.296 0-.522.336-.678 1.006 1.123.5 1.965.749 2.526.749.64 0 1.287-.983 1.942-2.948.561-1.684.842-2.978.842-3.883zm2.596 7.72c-.265.03-.545.397-.842 1.1l.258 1.145c.28-.889.475-1.637.584-2.245zm-1.24-.89c-.202.063-.393.235-.572.515-.18.281-.27.538-.27.772 0 .25.149.632.445 1.147.062-.11.195-.92.398-2.433zm-1.122-.28v-.093c-.203 0-.41.085-.62.257-.21.171-.316.35-.316.538 0 .14.07.323.21.55.141.226.211.362.211.409.359-.546.53-1.1.515-1.66zm-.96-.14v-.796a1.49 1.49 0 0 0-.572.421c-.18.203-.27.406-.27.609 0 .109.04.26.118.456.078.195.117.331.117.41a9.71 9.71 0 0 1 .374-.515c.156-.203.234-.398.234-.585zm-.42 2.128l-.21-.818h-.282l.188.818h.304zm1.31.609a1.584 1.584 0 0 0-.585-.094 4.198 4.198 0 0 0-.632 0 7.01 7.01 0 0 1-.608.047c-.14 0-.327-.28-.561-.842a46.19 46.19 0 0 0-.468-1.1c-.53.39-.795.803-.795 1.24 0 .437.187.866.56 1.287.095.109.453.436 1.077.982l1.1-.655c.42-.28.725-.57.912-.865zm1.544 5.707v-1.17c0-.42-.149-1.052-.445-1.894-.296-.905-.593-1.45-.889-1.638v.913c0 .202.195.803.585 1.8.468 1.233.717 1.896.749 1.99zm-2.807-.468c0-1.59-.203-2.713-.609-3.368v1.708c0 .39.07.888.21 1.497l.375 1.497c.016-.515.024-.96.024-1.334zm7.11-13.029l-.748.21v-.841c.14.015.292.093.456.233.164.14.261.273.293.398z" fill="#FFF" fill-rule="evenodd" fill-opacity=".2"/></svg>