<?xml version="1.0" encoding="UTF-8" standalone="no"?>
<svg width="22px" height="22px" viewBox="0 0 22 22" version="1.1" xmlns="http://www.w3.org/2000/svg" xmlns:xlink="http://www.w3.org/1999/xlink">
    <!-- Generator: Sketch 3.8.3 (29802) - http://www.bohemiancoding.com/sketch -->
    <title>pajaro2</title>
    <desc>Created with Sketch.</desc>
    <defs></defs>
    <g id="Page-1" stroke="none" stroke-width="1" fill="none" fill-rule="evenodd" fill-opacity="0.2">
        <g id="pajaro2" fill="#FFFFFF">
            <path d="M18.3918129,4.80711111 C18.3918129,5.86754526 18.2202746,6.56149544 17.877193,6.88898246 C17.8460037,6.88898246 17.8226122,6.88118526 17.8070175,6.86559064 C17.7290444,6.86559064 17.5731006,7.00594012 17.3391813,7.28664327 C17.3547759,7.45818409 17.5263142,7.54395322 17.8538012,7.54395322 C17.2612056,10.1950386 16.4425004,12.4484274 15.3976608,14.3041871 C15.6471747,12.791509 15.7719298,11.0761265 15.7719298,9.1579883 C15.7719298,8.12874339 15.6393775,7.38021287 15.374269,6.91237427 C15.0155927,6.25740023 14.3606285,5.92991813 13.4093567,5.92991813 C13.0662751,5.92991813 12.7465902,6.08586199 12.4502924,6.39775439 C12.6686171,6.91237684 12.988302,7.41529579 13.4093567,7.90652632 C13.8304115,8.39775684 14.095516,8.76032632 14.2046784,8.99424561 C14.4385977,9.46208421 14.5555556,10.101454 14.5555556,10.9123743 C14.5555556,11.9728084 14.3762201,12.9474575 14.0175439,13.8363509 C13.9863546,13.914324 13.7914248,14.2963864 13.4327485,14.9825497 C13.1364508,15.5751453 12.9883041,15.9338161 12.9883041,16.0585731 C12.9883041,17.0254395 13.1715381,17.8012602 13.5380117,18.3860585 C13.9044853,18.9708567 14.5321593,19.4503841 15.4210526,19.824655 L15.3040936,19.824655 C15.2573097,19.824655 14.7660865,19.7154943 13.8304094,19.4971696 L14.8830409,20.5498012 C13.7914175,20.4562335 12.6296358,20.1521429 11.3976608,19.6375205 C11.8654994,19.4191958 12.0994152,19.1540912 12.0994152,18.8421988 C12.0994152,18.5147118 11.6627724,17.1813918 10.7894737,14.8421988 C10.6023382,15.0917127 10.5165691,15.4971668 10.5321637,16.0585731 L10.5321637,16.573193 C10.5477584,17.6648164 10.6881078,18.5225076 10.9532164,19.1462924 C11.3274873,19.8480503 11.7017525,20.5575949 12.0760234,21.2749474 C11.5925902,20.9162711 11.1871361,20.6823553 10.8596491,20.573193 C11.0000007,20.8227069 11.1715389,21.1735806 11.374269,21.6258246 C10.9999981,21.4074999 10.6179357,21.1891785 10.2280702,20.9708538 C9.76023158,20.7213399 9.35477754,20.5965848 9.01169591,20.5965848 C8.76218199,20.5965848 8.52046901,20.643368 8.28654971,20.7369357 C8.97271298,20.0975563 9.31578947,19.3802145 9.31578947,18.5848889 C9.31578947,17.9611041 9.16764281,17.352923 8.87134503,16.7603275 C8.30993871,17.4932746 7.45224749,18.5926788 6.29824561,20.0585731 C6.40740795,19.7310861 6.83625357,18.9669612 7.58479532,17.7661754 C8.1929855,16.7837144 8.48927883,15.9884007 8.47368421,15.3802105 L8.47368421,15.2398596 C7.88108865,15.2710489 7.24171883,15.8870271 6.55555556,17.0878129 C5.8070138,18.4289502 5.2534131,19.1852779 4.89473684,19.3568187 C5.45614316,18.2184115 6.32163158,16.5810009 7.49122807,14.444538 C6.89863251,14.5381057 6.29045146,15.0917064 5.66666667,16.1053567 C4.90253029,17.3373317 4.35672678,18.0702678 4.02923977,18.3041871 C4.16959135,17.9143216 4.69200327,17.0878192 5.59649123,15.824655 C6.39181684,14.6862477 6.82066246,13.8831368 6.88304094,13.4152982 L6.78947368,13.3919064 C6.25925661,13.3607172 5.58090082,13.9221151 4.75438596,15.076117 C3.64716795,16.5887951 3.06237848,17.3763116 3,17.4386901 C3.0779731,16.8149053 3.70174854,15.8480533 4.87134503,14.5381053 C5.27680515,14.0702667 6.11890199,13.1969811 7.39766082,11.9182222 C7.39766082,11.6687083 7.07797591,11.4503869 6.43859649,11.2632515 C6.00194713,11.1540891 5.56530433,11.0449284 5.12865497,10.9357661 C5.22222269,10.5459006 5.31578901,10.1482437 5.40935673,9.74278363 C5.58089754,9.18137731 5.80701614,8.90067836 6.0877193,8.90067836 C6.29044936,8.90067836 6.59453988,8.95915731 7,9.07611696 C7.40546012,9.19307661 7.70955064,9.25155556 7.9122807,9.25155556 C8.11501076,9.25155556 8.34892655,9.0956117 8.61403509,8.7837193 C8.45808889,8.30028608 7.77193591,8.09755906 6.55555556,8.17553216 C6.47758246,7.86363977 6.43859649,7.67650713 6.43859649,7.61412865 C6.43859649,7.42699322 6.52436561,7.3334269 6.69590643,7.3334269 C6.86744725,7.3334269 7.16374058,7.42699322 7.58479532,7.61412865 C8.16179626,7.87923719 8.47368398,8.01958667 8.52046784,8.03518129 C8.81676561,7.81685661 8.96491228,7.55954924 8.96491228,7.26325146 C8.73099298,6.93576444 8.41910526,6.72913883 8.02923977,6.64336842 C7.63937427,6.55759801 7.25731181,6.47572749 6.88304094,6.39775439 C7.02339251,6.16383509 7.17933637,6.04687719 7.35087719,6.04687719 C7.55360725,6.04687719 7.85769778,6.07806596 8.26315789,6.14044444 C8.66861801,6.20282292 8.97270854,6.2340117 9.1754386,6.2340117 L9.29239766,6.2340117 L9.29239766,5.67260819 C9.13645146,5.53225661 8.76998339,5.36071836 8.19298246,5.1579883 C7.70954924,4.98644749 7.41325591,4.79931485 7.30409357,4.5965848 C7.39766129,4.56539556 7.50682199,4.54980117 7.63157895,4.54980117 C7.84990363,4.54980117 8.16568994,4.58098994 8.57894737,4.64336842 C8.9922048,4.7057469 9.30799111,4.73693567 9.52631579,4.73693567 C9.54191041,4.65896257 9.5497076,4.58099064 9.5497076,4.50301754 C9.5497076,4.20671977 9.33918339,3.98839836 8.91812865,3.84804678 C8.59064164,3.77007368 8.25536234,3.68430456 7.9122807,3.59073684 C8.09941614,3.41919602 8.30214316,3.3334269 8.52046784,3.3334269 C8.6452248,3.3334269 8.83625602,3.36461567 9.09356725,3.42699415 C9.35087848,3.48937263 9.54190971,3.5205614 9.66666667,3.5205614 C9.83820749,3.5205614 10.0019485,3.48937263 10.1578947,3.42699415 C10.064327,3.20866947 9.82261404,2.94356491 9.43274854,2.63167251 C9.13645076,2.41334784 8.84015743,2.19502643 8.54385965,1.97670175 C9.12086058,2.10145871 10.0721181,2.46792678 11.3976608,3.07611696 L11.3976608,2.37436257 C10.9922007,2.0780648 10.6257326,1.83635181 10.2982456,1.64921637 C10.0331371,1.5088648 9.7875255,1.36851532 9.56140351,1.22816374 C9.33528152,1.08781216 9.14425029,0.861693567 8.98830409,0.54980117 C9.72125123,0.752531228 10.4229986,1.07221614 11.0935673,1.5088655 C11.9356767,2.08586643 12.3567251,2.67065591 12.3567251,3.26325146 C12.3567251,3.41919766 12.3255364,3.56734433 12.2631579,3.70769591 C12.793375,3.84804749 13.6276746,3.92601942 14.7660819,3.94161404 C15.8421106,3.97280327 16.5984384,4.0585724 17.0350877,4.19892398 C17.0818716,4.07416702 17.1052632,3.94161474 17.1052632,3.80126316 C17.1052632,3.66091158 17.019494,3.24766035 16.8479532,2.56149708 C17.1130618,2.62387556 17.3937607,2.93576327 17.6900585,3.49716959 C17.7836262,3.35681801 17.8382065,3.1462938 17.8538012,2.86559064 C17.8693958,2.58488749 17.9083818,2.38995766 17.9707602,2.28079532 C18.2514634,3.41920257 18.3918129,4.26129942 18.3918129,4.80711111 L18.3918129,4.80711111 Z M17.877193,5.67260819 C17.877193,5.34512117 17.7680323,5.07221942 17.5497076,4.85389474 C17.3313829,4.63557006 17.0584812,4.52640936 16.7309942,4.52640936 C15.9824524,4.52640936 15.6081871,4.93966058 15.6081871,5.76617544 C15.6081871,6.14044632 15.7407394,6.54590035 16.005848,6.98254971 C16.1929834,6.88898199 16.4814795,6.81880725 16.871345,6.77202339 C17.2144267,6.74083415 17.4483425,6.67065942 17.5730994,6.56149708 C17.7758295,6.40555088 17.877193,6.10925754 17.877193,5.67260819 L17.877193,5.67260819 Z M14.625731,5.55564912 L14.625731,4.73693567 L14.3216374,4.73693567 L14.3216374,5.55564912 L14.625731,5.55564912 Z M13.4795322,5.39190643 L13.3859649,4.45623392 C13.2456133,4.48742316 13.1130611,4.52251053 12.9883041,4.56149708 C12.8635471,4.60048363 12.8011696,4.70574573 12.8011696,4.87728655 C12.8011696,5.22036819 13.0272882,5.39190643 13.4795322,5.39190643 L13.4795322,5.39190643 Z M17.1754386,8.19892398 C17.1754386,8.04297778 17.1403512,7.9026283 17.0701754,7.77787135 C16.9999996,7.65311439 16.9649123,7.56734526 16.9649123,7.5205614 L16.1695906,7.5205614 L16.1695906,12.0351813 C16.8401593,9.86752912 17.1754386,8.58878947 17.1754386,8.19892398 L17.1754386,8.19892398 Z M12.4502924,5.5088655 C12.3723193,5.36851392 12.2319698,5.15798971 12.0292398,4.87728655 C11.6861581,5.18917895 11.5146199,5.50106667 11.5146199,5.81295906 C11.6237822,5.82855368 11.7173485,5.83635088 11.7953216,5.83635088 C12.0292409,5.83635088 12.1812862,5.79736491 12.251462,5.71939181 C12.3216378,5.64141871 12.3879139,5.57124398 12.4502924,5.5088655 L12.4502924,5.5088655 Z M12.871345,11.1462924 L12.6842105,7.70769591 L12.380117,7.70769591 L12.5672515,11.1462924 L12.871345,11.1462924 Z M12.2865497,9.696 C12.2865497,9.49326994 12.1150115,8.92017626 11.7719298,7.97670175 C11.4288482,7.03322725 11.2027296,6.5303083 11.0935673,6.46792982 L11.0935673,7.47377778 C11.5614058,7.7232917 11.7953216,8.11315135 11.7953216,8.64336842 C11.7953216,8.79931462 11.7680315,9.03712901 11.7134503,9.35681871 C11.6588691,9.67650842 11.6315789,9.91432281 11.6315789,10.070269 C11.6315789,10.3509722 11.7017537,10.5692936 11.8421053,10.7252398 C12.138403,10.304185 12.2865497,9.96110854 12.2865497,9.696 L12.2865497,9.696 Z M13.9239766,12.0117895 L13.9239766,9.97670175 L13.619883,9.97670175 L13.619883,12.0117895 L13.9239766,12.0117895 Z M11.1871345,9.55564912 C11.1871345,8.88508047 11.1091626,8.43284327 10.9532164,8.19892398 C10.9532164,8.26130246 10.9142304,8.38995614 10.8362573,8.58488889 C10.7582842,8.77982164 10.7192982,8.94746129 10.7192982,9.08781287 C10.7192982,9.41529988 10.8674449,9.78956515 11.1637427,10.2106199 L11.1871345,9.55564912 Z M11.2339181,4.52640936 C11.2339181,4.4796255 11.0233939,4.13654901 10.6023392,3.49716959 C10.1345006,5.94552491 9.9005848,7.1774814 9.9005848,7.19307602 C9.41715158,9.03324117 8.81676772,9.95330994 8.0994152,9.95330994 C7.92787439,9.95330994 7.67836421,9.89483099 7.35087719,9.77787135 C7.02339018,9.6609117 6.77388,9.60243275 6.60233918,9.60243275 C6.3060414,9.60243275 6.07992281,9.93771205 5.92397661,10.6082807 C7.04678924,11.1073085 7.88888608,11.3568187 8.4502924,11.3568187 C9.08967181,11.3568187 9.73683883,10.3743724 10.3918129,8.40945029 C10.9532192,6.72523135 11.2339181,5.43089731 11.2339181,4.52640936 L11.2339181,4.52640936 Z M13.8304094,12.2457076 C13.5653008,12.2768968 13.2846019,12.6433649 12.9883041,13.3451228 L13.245614,14.4913216 C13.5263172,13.6024283 13.721247,12.8538978 13.8304094,12.2457076 L13.8304094,12.2457076 Z M12.5906433,11.3568187 C12.3879132,11.4191972 12.196882,11.5907354 12.0175439,11.8714386 C11.8382057,12.1521418 11.748538,12.4094491 11.748538,12.6433684 C11.748538,12.8928823 11.8966847,13.2749448 12.1929825,13.7895673 C12.2553609,13.6804049 12.3879132,12.8694968 12.5906433,11.3568187 L12.5906433,11.3568187 Z M11.4678363,11.076117 L11.4678363,10.9825497 C11.2651062,10.9825497 11.0584806,11.0683188 10.8479532,11.2398596 C10.6374258,11.4114005 10.5321637,11.5907359 10.5321637,11.7778713 C10.5321637,11.9182229 10.6023385,12.101457 10.7426901,12.3275789 C10.8830416,12.5537009 10.9532164,12.6901518 10.9532164,12.7369357 C11.3118926,12.191124 11.4834309,11.6375233 11.4678363,11.076117 L11.4678363,11.076117 Z M10.5087719,10.9357661 L10.5087719,10.1404444 C10.3060419,10.2184175 10.1150106,10.358767 9.93567251,10.5614971 C9.75633439,10.7642271 9.66666667,10.9669542 9.66666667,11.1696842 C9.66666667,11.2788465 9.70565263,11.4308918 9.78362573,11.6258246 C9.86159883,11.8207573 9.9005848,11.9572082 9.9005848,12.0351813 C9.91617942,12.003992 10.0409345,11.8324538 10.2748538,11.5205614 C10.4308,11.3178313 10.5087719,11.1229015 10.5087719,10.9357661 L10.5087719,10.9357661 Z M10.0877193,13.0644211 L9.87719298,12.2457076 L9.59649123,12.2457076 L9.78362573,13.0644211 L10.0877193,13.0644211 Z M11.3976608,13.6726082 C11.2417146,13.6102297 11.0467848,13.5790409 10.8128655,13.5790409 C10.6569193,13.5634463 10.4463951,13.5634463 10.1812865,13.5790409 C9.88498877,13.6102302 9.68226175,13.6258246 9.57309942,13.6258246 C9.43274784,13.6258246 9.2456152,13.3451256 9.01169591,12.7837193 C8.73099275,12.1131506 8.57504889,11.7466826 8.54385965,11.6843041 C8.01364257,12.0741696 7.74853801,12.4874208 7.74853801,12.9240702 C7.74853801,13.3607195 7.93567064,13.7895651 8.30994152,14.2106199 C8.40350924,14.3197822 8.76218012,14.6472643 9.38596491,15.193076 C10.118912,14.7564267 10.4853801,14.5381053 10.4853801,14.5381053 C10.9064349,14.2574021 11.2105254,13.968906 11.3976608,13.6726082 L11.3976608,13.6726082 Z M12.9415205,19.3802105 L12.9415205,18.2106199 C12.9415205,17.7895651 12.7933738,17.1579925 12.497076,16.315883 C12.2007782,15.4113951 11.9044849,14.8655916 11.6081871,14.6784561 L11.6081871,15.5907368 C11.6081871,15.7934669 11.803117,16.3938508 12.1929825,17.3919064 C12.6608211,18.6238814 12.9103312,19.2866428 12.9415205,19.3802105 L12.9415205,19.3802105 Z M10.1345029,18.9123743 C10.1345029,17.321723 9.93177591,16.1989273 9.52631579,15.5439532 L9.52631579,17.2515556 C9.52631579,17.6414211 9.59649053,18.1404414 9.73684211,18.7486316 C9.86159906,19.2476594 9.98635415,19.7466798 10.1111111,20.2457076 C10.1267057,19.7310851 10.1345029,19.2866451 10.1345029,18.9123743 L10.1345029,18.9123743 Z M17.245614,5.8831345 L16.497076,6.09366082 L16.497076,5.25155556 C16.6374276,5.26715018 16.7894729,5.34512211 16.9532164,5.48547368 C17.1169599,5.62582526 17.2144248,5.75837754 17.245614,5.8831345 L17.245614,5.8831345 Z" id="Shape"></path>
        </g>
    </g>
</svg>