<?xml version="1.0" encoding="UTF-8" standalone="no"?>
<svg width="22px" height="22px" viewBox="0 0 22 22" version="1.1" xmlns="http://www.w3.org/2000/svg" xmlns:xlink="http://www.w3.org/1999/xlink">
    <!-- Generator: Sketch 3.8.3 (29802) - http://www.bohemiancoding.com/sketch -->
    <title>pajaro</title>
    <desc>Created with Sketch.</desc>
    <defs></defs>
    <g id="Page-1" stroke="none" stroke-width="1" fill="none" fill-rule="evenodd" opacity="0.2">
        <g id="pajaro" fill="#FFFFFF">
            <path d="M0,13.8792711 C0,14.5808691 0.171220763,15.1571731 0.513667426,15.6082005 C0.856114089,16.0592278 1.36142415,16.284738 2.02961276,16.284738 C2.48064007,16.284738 2.86484276,16.1928635 3.18223235,16.0091116 C3.58314551,15.7752456 3.78359909,15.4578608 3.78359909,15.0569476 C3.78359909,14.4054637 3.55808882,14.0379655 3.1070615,13.9544419 C3.00683321,14.0713749 2.92331089,14.2384196 2.85649203,14.4555809 C2.75626374,14.7562657 2.69779811,14.9316626 2.68109339,14.9817768 C2.44722738,14.8815485 2.33029613,14.614277 2.33029613,14.1799544 C2.33029613,13.6454036 2.54745417,13.3781321 2.98177677,13.3781321 C3.91724082,13.3781321 4.60212387,13.8792661 5.03644647,14.881549 C5.37054077,15.6165564 5.53758542,16.5269498 5.53758542,17.6127563 C5.53758542,17.7296893 5.39559747,18.0763069 5.11161731,18.6526196 C4.82763715,19.2289323 4.6856492,19.5755499 4.6856492,19.6924829 L4.6856492,20.6446469 C4.88610579,20.5778281 5.0447982,20.5444191 5.16173121,20.5444191 C5.34548308,20.5444191 5.59187393,20.5611236 5.90091116,20.594533 C6.20994839,20.6279425 6.42293032,20.6446469 6.53986333,20.6446469 C6.60668219,20.0599819 6.83219246,19.2915765 7.21640091,18.3394077 C7.29992449,18.5064549 7.35003788,18.6985562 7.3667426,18.9157175 C7.38344731,19.0827647 7.38344731,19.2832183 7.3667426,19.5170843 C7.35003788,19.8511786 7.34168565,20.0599844 7.34168565,20.143508 C7.34168565,20.5778306 7.54213923,20.7949886 7.94305239,20.7949886 C8.47760328,20.7949886 9.02885062,20.594535 9.59681093,20.1936219 C9.58010622,20.0265747 9.4715272,19.6507243 9.27107062,19.0660592 C9.10402346,18.5816225 9.02050114,18.2141243 9.02050114,17.9635535 C9.02050114,17.4624121 9.26689199,16.8902842 9.75968109,16.2471526 C10.2524702,15.6040211 10.7410758,15.2824601 11.2255125,15.2824601 C11.5930163,15.2824601 12.2277859,15.599845 13.1298405,16.2346241 C13.1298405,16.5018996 13.1047838,16.9069829 13.0546697,17.4498861 C13.0045556,17.9927894 12.9794989,18.3978726 12.9794989,18.6651481 L12.7289294,18.9157175 C12.4115398,18.7486704 12.2946085,18.5649213 12.3781321,18.3644647 C12.2946085,18.3644647 12.0774505,18.5482138 11.7266515,18.9157175 C11.576309,18.7987845 11.501139,18.673501 11.501139,18.5398633 C11.501139,18.322702 11.6556553,18.0261978 11.9646925,17.6503417 C12.2737297,17.2744856 12.4616549,16.9779813 12.5284738,16.76082 C11.8936946,16.4434305 11.5512531,16.284738 11.501139,16.284738 C11.2672729,16.284738 10.9916493,16.4476066 10.6742597,16.7733485 C10.3568701,17.0990905 10.1981777,17.3788903 10.1981777,17.6127563 C10.1981777,18.0470789 10.4320402,18.4312815 10.8997722,18.7653759 C11.3173901,19.049356 11.7600584,19.191344 12.2277904,19.191344 C13.1298451,19.191344 13.9650683,18.8238457 14.7334852,18.0888383 C15.5019021,17.3538308 15.8861048,16.535312 15.8861048,15.6332574 C15.8861048,14.8815452 15.5854244,14.2801845 14.9840547,13.8291572 C14.6165509,13.5618817 13.9567246,13.2737297 13.0045558,12.9646925 C12.052387,12.6556553 11.4092651,12.3758555 11.0751708,12.1252847 C12.0106349,10.9726594 12.8124492,10.2376629 13.4806378,9.92027335 C14.1488264,9.60288376 15.2179122,9.44419134 16.6879271,9.44419134 C16.9384978,9.44419134 17.4855691,9.61541211 18.3291572,9.95785877 C19.1727453,10.3003054 19.7448732,10.4715262 20.0455581,10.4715262 C20.0455581,10.4715262 20.4214085,10.4464695 21.1731207,10.3963554 L21.2482916,9.74487472 C20.3295322,9.21032383 19.4107867,8.67578096 18.4920273,8.14123007 C17.0888313,7.35610845 16.1951424,6.96355353 15.8109339,6.96355353 C15.7107056,6.96355353 15.6605923,6.980258 15.6605923,7.01366743 L15.6605923,7.03872437 C15.6605923,7.08883852 15.6104789,7.11389522 15.5102506,7.11389522 C15.3599081,7.11389522 15.2095679,6.91761776 15.0592255,6.52505695 C14.9088831,6.13249614 14.7167817,5.93621868 14.4829157,5.93621868 C14.3993921,5.93621868 14.3033415,5.96127538 14.1947608,6.01138952 C14.0861802,6.06150367 13.9984817,6.08656036 13.9316629,6.08656036 C13.7646157,5.96962736 13.6810934,5.82763941 13.6810934,5.66059226 C13.6810934,5.4935451 13.8189052,5.11351853 14.094533,4.52050114 C14.3701608,3.92748375 14.5747905,3.54745718 14.7084282,3.38041002 C14.725133,3.2467723 14.6082017,3.17995444 14.357631,3.17995444 C14.240698,3.17995444 13.9984832,3.37205579 13.6309795,3.75626424 C13.5808654,3.70615009 13.5182236,3.62262777 13.4430524,3.50569476 C13.3678812,3.38876175 13.3052394,3.2968872 13.2551253,3.23006834 C13.4388772,3.02961175 13.6309785,2.72893139 13.8314351,2.32801822 C13.7145021,2.32801822 13.5975708,2.2695526 13.4806378,2.15261959 C13.3637048,2.20273374 13.2175407,2.31966499 13.0421412,2.50341686 C12.8667417,2.68716872 12.6537598,2.80409998 12.4031891,2.85421412 L12.4031891,2.37813212 C12.5368268,2.29460854 12.7205759,2.15262059 12.9544419,1.95216401 L12.6036446,1.57630979 C12.3530739,1.70994752 12.0189846,2.10250244 11.6013667,2.75398633 C11.5345479,2.58693918 11.4927867,2.05239631 11.476082,1.15034169 C11.3758537,1.20045583 11.0668211,1.49278396 10.5489749,2.02733485 C10.3819278,1.96051599 10.173122,1.80182358 9.92255125,1.55125285 C9.62186638,1.23386326 9.43811727,1.05011415 9.37129841,1 C9.35459369,1.48443674 9.33788923,1.76841264 9.32118451,1.85193622 C9.25436565,2.11921166 9.087321,2.31966524 8.82004556,2.45330296 C8.60288426,2.35307467 8.3815501,2.15679721 8.15603645,1.86446469 C7.93052279,1.57213218 7.75094979,1.38420695 7.61731207,1.30068337 C7.60060736,1.41761638 7.59225513,1.53454763 7.59225513,1.65148064 C7.59225513,1.73500421 7.61313571,1.86863993 7.65489749,2.0523918 C7.69665928,2.23614367 7.71753986,2.36977938 7.71753986,2.45330296 C7.71753986,2.70387369 7.64236977,2.89597503 7.49202733,3.02961276 C7.25816132,2.7456326 6.87395863,2.36142991 6.33940774,1.87699317 L5.96355353,2.22779043 C6.11389597,2.37813287 6.31434954,2.62869984 6.56492027,2.97949886 L6.56492027,3.53075171 C6.43128255,3.68109415 6.30599907,3.75626424 6.18906606,3.75626424 C6.03872362,3.75626424 5.81321335,3.63933298 5.51252847,3.40546697 C5.29536718,3.23841982 5.07820913,3.06302294 4.86104784,2.87927107 L4.51025057,3.25512528 C4.74411658,3.4889913 5.08655811,3.83978506 5.53758542,4.30751708 C5.53758542,4.47456424 5.42065417,4.68337005 5.18678815,4.93394077 C4.96962686,4.61655118 4.58542417,4.1822351 4.03416856,3.6309795 L3.35763098,3.80637813 C3.42444984,4.00683472 3.85876592,4.50796866 4.66059226,5.30979499 L4.56036446,5.96127563 C3.87547114,5.54365774 3.15717916,5.05087604 2.40546697,4.48291572 L2.02961276,4.85876993 C2.81473437,5.66059626 3.7501844,6.43735387 4.83599089,7.18906606 C5.57099836,7.6735028 6.31434704,8.15793228 7.06605923,8.64236902 C7.9179997,9.22703405 8.56947383,9.81169032 9.02050114,10.3963554 C8.36901724,11.0311345 7.79271321,11.3485194 7.29157175,11.3485194 C6.94077273,11.3485194 6.17654347,11.1772986 4.99886105,10.8348519 C3.82117862,10.4924053 2.98177927,10.3211845 2.48063781,10.3211845 C1.6955162,10.3211845 1.06909877,10.7387961 0.601366743,11.5740319 C0.200453576,12.2589252 0,13.0273306 0,13.8792711 L0,13.8792711 Z M1.02733485,12 C1.02733485,11.8496576 1.08162436,11.686789 1.19020501,11.5113895 C1.29878566,11.33599 1.35307517,11.2315871 1.35307517,11.1981777 C1.3864846,11.2148824 1.42824576,11.3652226 1.47835991,11.6492027 C1.51176934,11.8329546 1.71222292,11.9248292 2.07972665,11.9248292 C2.1298408,11.7243726 2.22171535,11.4320444 2.35535308,11.047836 L3.05694761,11.0728929 L3.05694761,11.9749431 C3.05694761,12.2088091 2.94836859,12.4259671 2.73120729,12.6264237 C2.51404599,12.8268803 2.28018349,12.9271071 2.02961276,12.9271071 C1.77904203,12.9271071 1.54935564,12.8352325 1.3405467,12.6514806 C1.13173776,12.4677288 1.02733485,12.2505707 1.02733485,12 L1.02733485,12 Z M5.68792711,6.16173121 C5.68792711,5.34320016 6.18070882,4.53303362 7.16628702,3.73120729 C8.10175107,2.9794951 8.9870877,2.60364465 9.82232346,2.60364465 C10.4571026,2.60364465 11.1461618,2.8500355 11.8895216,3.3428246 C12.6328815,3.8356137 13.0546692,4.38268492 13.1548975,4.98405467 C12.7539843,4.71677923 12.3530772,4.44950779 11.952164,4.18223235 C11.4009084,3.7980239 10.9832968,3.60592255 10.6993166,3.60592255 C9.52998656,3.60592255 8.51936645,3.99012524 7.66742597,4.75854214 C6.76537134,5.56036847 6.38116866,6.53757966 6.51480638,7.69020501 C5.96355077,7.12224469 5.68792711,6.61275852 5.68792711,6.16173121 L5.68792711,6.16173121 Z M0.876993166,15.2072893 C0.876993166,15.0903563 0.914578212,14.9483683 0.989749431,14.7813212 C1.06492065,14.614274 1.10250569,14.4889905 1.10250569,14.405467 C1.08580098,14.873199 1.27790232,15.3075151 1.67881549,15.7084282 C1.74563435,15.5246764 1.89597453,15.2574049 2.12984055,14.9066059 L2.33029613,15.808656 L1.5284738,16.0091116 C1.09415121,15.7418362 0.876993166,15.4745647 0.876993166,15.2072893 L0.876993166,15.2072893 Z M7.56719818,7.03872437 C7.56719818,6.27030747 7.8302935,5.606305 8.35649203,5.04669704 C8.88269056,4.48708908 9.52163633,4.20728929 10.2733485,4.20728929 C10.8246041,4.20728929 11.4092604,4.43697568 12.0273349,4.89635535 C12.6454093,5.35573502 12.9544419,5.85269285 12.9544419,6.38724374 C12.9544419,6.50417674 12.921033,6.63363634 12.8542141,6.77562642 C12.7873953,6.9176165 12.7539863,7.03037164 12.7539863,7.11389522 L12.7539863,6.91343964 C12.7873958,6.39559346 12.5702377,5.96127738 12.1025057,5.61047836 C11.6347737,5.25967934 11.1169353,5.08428246 10.5489749,5.08428246 C10.0144241,5.08428246 9.52999458,5.30979273 9.09567198,5.76082005 C8.66134938,6.21184736 8.44419134,6.7129813 8.44419134,7.2642369 C8.44419134,7.83219722 8.59453153,8.23310437 8.8952164,8.46697039 C9.27942485,8.7008364 9.66362754,8.94305114 10.047836,9.19362187 C9.99772185,9.34396431 9.93925622,9.56947458 9.87243736,9.87015945 C9.03720159,9.41913214 8.48595426,9.05998615 8.21867882,8.79271071 C7.78435622,8.35838811 7.56719818,7.77373185 7.56719818,7.03872437 L7.56719818,7.03872437 Z M4.08428246,12.2756264 C4.08428246,12.0751698 4.15527644,11.8705401 4.29726651,11.6617312 C4.43925659,11.4529223 4.61047736,11.3485194 4.81093394,11.3485194 C5.37889426,11.3485194 5.9050849,11.4988595 6.38952164,11.7995444 L6.28929385,12.4259681 C5.70462882,12.1921021 5.27866497,12.0751708 5.01138952,12.0751708 C4.84434237,12.0751708 4.72741112,12.1503409 4.66059226,12.3006834 C4.69400169,12.5178447 4.78587624,12.6514804 4.93621868,12.7015945 C5.08656112,12.7517087 5.2369013,12.7934698 5.38724374,12.8268793 C5.38724374,12.9271076 5.36218704,13.0690955 5.31207289,13.2528474 C5.26195875,13.4365992 5.22854982,13.570235 5.2118451,13.6537585 L4.41002278,13.6537585 C4.19286148,13.0189794 4.08428246,12.5596066 4.08428246,12.2756264 L4.08428246,12.2756264 Z M9.02050114,7.2642369 C9.02050114,6.79650487 9.17084132,6.41230219 9.4715262,6.11161731 C9.77221107,5.81093244 10.1564138,5.66059226 10.6241458,5.66059226 C11.0417637,5.66059226 11.413438,5.76917128 11.73918,5.98633257 C12.0649219,6.20349387 12.2277904,6.50417424 12.2277904,6.88838269 C12.2277904,7.38952415 12.0732741,7.79460741 11.7642369,8.10364465 C11.4551997,8.41268188 11.0501164,8.56719818 10.5489749,8.56719818 C9.52998731,8.56719818 9.02050114,8.1328821 9.02050114,7.2642369 L9.02050114,7.2642369 Z M13.7061503,7.38952164 L13.8063781,6.61275626 C14.2072913,6.69627984 14.4077449,6.84662002 14.4077449,7.06378132 C14.2072883,7.2642379 13.9734258,7.37281692 13.7061503,7.38952164 L13.7061503,7.38952164 Z M9.62186788,11.1230068 C9.62186788,10.9893691 9.80979311,10.7012171 10.1856492,10.2585421 C10.5615053,9.81586719 10.8078962,9.59453303 10.9248292,9.59453303 C11.0918763,9.59453303 11.2296881,9.67387924 11.3382688,9.83257403 C11.4468494,9.99126883 11.501139,10.1541374 11.501139,10.3211845 C11.501139,10.6385741 11.3257421,10.9643112 10.9749431,11.2984055 C10.624144,11.6324998 10.2817025,11.8329533 9.9476082,11.8997722 C9.93090349,11.8496581 9.86408563,11.7243746 9.74715262,11.523918 C9.66362904,11.3735756 9.62186788,11.2399398 9.62186788,11.1230068 L9.62186788,11.1230068 Z M6.11389522,14.4806378 C6.11389522,13.528469 6.2892921,12.8644666 6.64009112,12.4886105 C6.99089014,12.1127544 7.64236426,11.9248292 8.59453303,11.9248292 C9.24601692,11.9248292 9.70121359,12.0835216 9.96013667,12.4009112 C10.2190598,12.7183008 10.3485194,13.2110825 10.3485194,13.8792711 C10.3485194,14.5808691 10.0645435,15.1571731 9.49658314,15.6082005 C8.92862282,16.0592278 8.28550093,16.284738 7.56719818,16.284738 C6.59832469,16.284738 6.11389522,15.6833773 6.11389522,14.4806378 L6.11389522,14.4806378 Z M12.1025057,9.3690205 C12.1025057,8.9346979 12.3864816,8.5212624 12.9544419,8.12870159 C13.5224022,7.73614079 14.0318884,7.53986333 14.4829157,7.53986333 C15.3181515,7.53986333 16.236897,7.78207806 17.23918,8.26651481 C18.0911204,8.68413269 18.9514004,9.11009654 19.8200456,9.54441913 C17.331043,9.09339182 15.8025845,8.86788155 15.2346241,8.86788155 C14.0819988,8.86788155 13.0964354,9.30219763 12.2779043,10.1708428 C12.2779043,10.0873192 12.2486715,9.95785965 12.190205,9.78246014 C12.1317385,9.60706063 12.1025057,9.46924879 12.1025057,9.3690205 L12.1025057,9.3690205 Z M5.41230068,20.0683371 C5.41230068,19.8511758 5.47911854,19.571376 5.61275626,19.2289294 C5.74639399,18.8864827 5.88838194,18.6317396 6.03872437,18.4646925 C6.08883852,18.5148066 6.17653696,18.5732723 6.30182232,18.6400911 C6.42710769,18.70691 6.51480613,18.7653756 6.56492027,18.8154897 C6.46469198,19.0994699 6.30599957,19.5170815 6.08883827,20.0683371 L5.41230068,20.0683371 Z M6.2642369,17.3621868 C6.4813982,17.1450255 6.58997722,16.9362197 6.58997722,16.7357631 C6.94077624,16.9529244 7.27486554,17.0615034 7.59225513,17.0615034 C7.89294,17.0615034 8.16856367,16.9612766 8.4191344,16.76082 L8.4191344,17.5626424 C8.16856367,17.8132131 8.04328018,18.0053144 8.04328018,18.1389522 C8.04328018,18.1723616 8.17273978,18.3895196 8.43166287,18.7904328 C8.69058596,19.191346 8.83675002,19.5588442 8.87015945,19.8929385 C8.45254157,20.1100998 8.18527014,20.2103266 8.06833713,20.1936219 L8.04328018,20.1936219 C7.99316604,19.9764606 7.96810934,19.7008369 7.96810934,19.3667426 L7.96810934,18.8656036 C7.96810934,18.5315093 7.94305264,18.2475334 7.8929385,18.0136674 L7.64236902,18.0387244 C6.95747569,18.0554291 6.49810292,17.8299188 6.2642369,17.3621868 L6.2642369,17.3621868 Z M11.6514806,14.7312073 C11.6514806,14.6810931 11.7433552,14.280186 11.9271071,13.5284738 C12.0273354,13.7623398 12.1192099,14.0045546 12.2027335,14.2551253 C12.3196665,14.5558102 12.5034156,14.7061503 12.7539863,14.7061503 C12.8542146,14.7061503 12.9544414,14.6810936 13.0546697,14.6309795 C13.1047838,14.3302946 13.1298405,14.129841 13.1298405,14.0296128 C13.1298405,13.9460892 13.0630227,13.8625669 12.929385,13.7790433 C12.7957472,13.6955197 12.7122249,13.6203496 12.6788155,13.5535308 L13.5056948,13.5535308 C13.7228561,13.9544439 13.8314351,14.2634765 13.8314351,14.4806378 C13.8314351,15.1989406 13.5391069,15.5580866 12.9544419,15.5580866 C12.6203476,15.5580866 12.1860315,15.3075196 11.6514806,14.8063781 L11.6514806,14.7312073 Z M13.6810934,16.6605923 C13.6810934,15.9255848 13.9734215,15.5580866 14.5580866,15.5580866 C15.0425233,15.5580866 15.284738,15.8003013 15.284738,16.284738 C15.284738,16.6021276 15.0592278,16.8693991 14.6082005,17.0865604 C14.5413816,17.1199698 14.4244503,17.1784354 14.2574032,17.261959 C14.2406985,17.261959 14.2156418,17.2703112 14.1822323,17.2870159 C14.1989371,17.3204254 14.2072893,17.3872432 14.2072893,17.4874715 C14.2072893,17.637814 14.1822326,17.8215631 14.1321185,18.0387244 C13.8314336,17.4373546 13.6810934,16.9779818 13.6810934,16.6605923 L13.6810934,16.6605923 Z M10.047836,6.88838269 C10.1313596,7.02202041 10.219058,7.15565613 10.3109339,7.28929385 C10.4028099,7.42293157 10.5406217,7.48974943 10.7243736,7.48974943 C10.7911924,7.48974943 10.8747148,7.4813972 10.9749431,7.46469248 L11.0501139,6.38724374 L10.3735763,6.38724374 C10.3234622,6.50417674 10.2148831,6.67122139 10.047836,6.88838269 L10.047836,6.88838269 Z M7.14123007,14.3302961 C7.14123007,14.6142763 7.22892851,14.8648433 7.40432802,15.0820046 C7.57972753,15.2991659 7.80941392,15.4077449 8.09339408,15.4077449 C8.41078367,15.4077449 8.66970287,15.2741092 8.87015945,15.0068337 C9.07061604,14.7395583 9.17084282,14.4388779 9.17084282,14.1047836 C9.17084282,13.4198903 8.87851469,13.0774487 8.29384966,13.0774487 C7.52543276,13.0774487 7.14123007,13.4950604 7.14123007,14.3302961 L7.14123007,14.3302961 Z"></path>
        </g>
    </g>
</svg>