<?xml version="1.0" encoding="UTF-8" standalone="no"?>
<svg width="22px" height="22px" viewBox="0 0 22 22" version="1.1" xmlns="http://www.w3.org/2000/svg" xmlns:xlink="http://www.w3.org/1999/xlink">
    <!-- Generator: Sketch 3.8.3 (29802) - http://www.bohemiancoding.com/sketch -->
    <title>pajaro 3</title>
    <desc>Created with Sketch.</desc>
    <defs></defs>
    <g id="Page-1" stroke="none" stroke-width="1" fill="none" fill-rule="evenodd" opacity="0.200000003">
        <g id="pajaro-3" fill="#FFFFFF">
            <path d="M12.4699742,9.80793834 C12.4699742,10.4454575 12.2247782,10.9603691 11.7343788,11.3526886 C11.2439794,11.7450081 10.6800286,11.9411649 10.0425094,11.9411649 C9.78096311,11.9411649 9.4295155,11.7327483 8.98815607,11.3159089 C8.54679664,10.8990694 8.32612023,10.5680548 8.32612023,10.3228551 C8.32612023,10.1920819 8.55088324,9.70168993 9.00041599,8.85166436 C9.44994875,8.00163878 9.67471175,7.51124677 9.67471175,7.3804736 C9.67471175,4.61789049 9.29874454,3.23661965 8.54679885,3.23661965 C7.9583196,3.23661965 7.17369238,3.32652486 6.19289364,3.50633796 C5.14670832,3.68615106 4.3866007,3.87413467 3.91254798,4.07029441 L9.50307283,1.47119075 C9.79731246,1.58561727 10.0915477,1.64282967 10.3857873,1.64282967 L10.5574262,1.64282967 C10.475693,1.23416353 10.0752062,1.02983353 9.35595376,1.02983353 C8.97998091,1.02983353 8.35064449,1.11973873 7.46792563,1.29955183 C7.53331221,1.07069879 7.64773701,0.735597583 7.81120347,0.29423815 C7.87659005,0.392318024 7.98284165,0.539435628 8.12996147,0.735595376 C8.27708128,0.735595376 8.35064008,0.539438571 8.35064008,0.147119075 C8.51410653,0.163465721 8.73478294,0.310583325 9.01267592,0.588476301 C9.11075579,0.425009844 9.3069126,0.228853039 9.60115222,0 C9.6665388,0.163466456 9.7727904,0.408662463 9.91991021,0.735595376 C10.0179901,0.572128919 10.2059737,0.375972114 10.4838667,0.147119075 C10.5002133,0.310585532 10.5574257,0.555781538 10.6555056,0.882714451 C10.7699321,0.686554703 10.9742621,0.490397898 11.2685017,0.29423815 L11.2685017,1.25051214 C10.5982893,2.47651056 10.2631881,3.40825539 10.2631881,4.04577457 C10.2631881,5.0592666 10.4511717,5.96649182 10.8271445,6.76747746 C10.9742643,7.06171708 11.3338851,7.60932149 11.9060177,8.41030713 C12.2819906,8.94974644 12.4699742,9.41561885 12.4699742,9.80793834 L12.4699742,9.80793834 Z M19.4090906,10.8622917 C19.3110107,10.9113317 19.0739879,10.9276781 18.698015,10.9113314 C18.0604959,10.8949848 17.8152998,10.8868116 17.9624197,10.8868116 L17.7662609,10.8868116 C17.8970341,11.1156646 18.1790095,11.3404276 18.6121956,11.5611073 C19.0453817,11.781787 19.2783179,11.9983768 19.3110112,12.2108832 C19.1148514,12.2108832 18.608113,12.0474192 17.7907807,11.7204863 L17.7907807,12.3089626 C17.8561673,12.3580026 18.0686705,12.496947 18.4282967,12.7258 C18.6734964,12.8729198 18.8451336,13.0527302 18.9432135,13.2652366 C18.6653205,13.1508101 18.2566605,12.9056141 17.7172212,12.5296412 C17.5701014,12.676761 17.4965426,12.8320519 17.4965426,12.9955183 C17.4965426,13.1262915 17.6681798,13.3714875 18.0114593,13.7311137 C18.256659,13.9599667 18.501855,14.1888163 18.7470547,14.4176694 C18.4364685,14.4176694 17.9869424,14.1888198 17.3984632,13.7311137 C17.2349967,13.7311137 17.0633595,13.8046725 16.8835464,13.9517923 L16.8835464,14.5157488 C17.4066391,14.8426817 17.7989527,15.2104757 18.060499,15.6191418 C17.7008728,15.5210619 16.9244188,15.0061503 15.7311137,14.0743915 C14.9628213,13.4695656 14.1945405,12.8565756 13.4262482,12.2354031 C13.3772082,12.284443 13.328169,12.325309 13.2791291,12.3580023 C13.2300892,12.3906956 13.2055696,12.4806008 13.2055696,12.6277206 C13.2055696,13.0527334 13.855339,13.8087544 15.1548973,14.8958064 C16.4544556,15.9828583 17.1205715,16.7715721 17.1532647,17.2619715 C17.0878782,17.2129316 16.8917214,16.9513891 16.5647884,16.4773364 C16.3032421,16.1177102 16.0825657,15.9378998 15.9027526,15.9378998 C15.9027526,15.9378998 15.8537134,15.946073 15.7556335,15.9624197 C15.7229402,16.0278062 15.7065938,16.101365 15.7065938,16.1830983 C15.7065938,16.5427245 15.9763094,16.9922505 16.5157488,17.5316898 C16.0580427,17.4172633 15.6657291,17.0821621 15.3387961,16.5263761 C15.1916763,16.6571493 15.1181175,16.7797473 15.1181175,16.8941738 C15.1181175,16.9922537 15.2161959,17.1802373 15.4123557,17.4581303 C15.6248621,17.7850632 15.7474601,17.98122 15.7801534,18.0466066 C15.5349537,18.0139133 15.3224505,17.8586225 15.1426374,17.5807295 C14.9628243,17.3028365 14.7258015,17.1638921 14.4315619,17.1638921 L14.4315619,17.335531 C14.4152152,17.5153441 14.4438214,17.7564535 14.5173813,18.0588665 C14.5909412,18.3612794 14.6277206,18.5860424 14.6277206,18.7331622 C14.4479075,18.4552693 14.1291527,18.0629557 13.6714466,17.5562096 C13.60606,17.6869828 13.5733672,17.8259272 13.5733672,17.973047 C13.5733672,18.1365135 13.6224064,18.3408435 13.7204863,18.5860432 C13.8349128,18.8802828 13.9002984,19.0764396 13.9166451,19.1745195 C13.5406722,19.0764396 13.2791298,18.84759 13.13201,18.4879638 C12.8868103,17.9321778 12.7396927,17.6215962 12.6906528,17.5562096 C12.4454531,17.7850627 12.3228551,17.9566999 12.3228551,18.0711264 C12.3228551,18.2509395 12.3718943,18.4961355 12.4699742,18.8067218 C12.5844007,19.166348 12.6497863,19.411544 12.666133,19.5423172 C12.5026665,19.4769306 12.3228561,19.248081 12.1266963,18.8557615 C11.8978433,18.3980554 11.7262061,18.1119934 11.6117796,17.9975669 C11.5136997,18.2754598 11.4646605,18.5451754 11.4646605,18.8067218 C11.4646605,18.9048017 11.4728337,19.0355729 11.4891803,19.1990393 C11.505527,19.3625058 11.5137002,19.4851038 11.5137002,19.566837 C11.5137002,19.7793434 11.4156218,19.9509806 11.219462,20.0817538 C11.0396489,19.9673272 10.9415705,19.8038632 10.9252239,19.5913568 C10.9415705,19.7875166 10.9497437,19.5831866 10.9497437,18.9783607 C10.9497437,18.6023878 10.7944529,18.2754598 10.4838667,17.9975669 C10.3204002,18.1937266 10.189629,18.537001 10.0915491,19.0274004 C9.96077597,19.6485729 9.87087077,20.0245401 9.82183083,20.1553133 C9.70740431,20.0408868 9.63384551,19.885596 9.60115222,19.6894362 C9.56845893,19.5586631 9.56028573,19.3870259 9.57663237,19.1745195 C9.59297902,18.8475866 9.60115222,18.6677761 9.60115222,18.6350829 C9.60115222,18.2754567 9.49490061,18.0139142 9.28239422,17.8504478 C9.08623447,17.9485277 8.88190447,18.2427629 8.66939807,18.7331622 C8.53862491,19.0764418 8.40785371,19.4278894 8.27708054,19.7875156 C8.14630738,19.7057824 7.96649697,19.5831844 7.73764393,19.4197179 C8.94729571,17.2619607 9.55211253,15.2268338 9.55211253,13.3142763 C9.55211253,13.1181166 9.40499492,12.9546526 9.1107553,12.8238794 C8.76747574,13.902758 8.43237453,14.9816204 8.10544162,16.060499 C7.66408219,17.4663106 7.19820977,18.4470946 6.70781041,19.0028805 C6.72415705,18.8067208 6.78136945,18.5778712 6.87944933,18.3163249 C7.04291578,17.9076587 7.13282099,17.6788091 7.14916763,17.6297692 L7.0265684,17.016773 C6.94483517,16.9840797 6.87127637,16.9677333 6.80588979,16.9677333 C6.62607669,16.9677333 6.47078588,17.1720633 6.34001272,17.5807295 C6.17654626,18.0547822 5.99673586,18.3571906 5.80057611,18.4879638 C5.75153617,18.3898839 5.72701657,18.2918055 5.72701657,18.1937256 C5.72701657,18.0956458 5.78422897,17.919922 5.89865549,17.6665489 C6.01308201,17.4131759 6.07029441,17.1802397 6.07029441,16.9677333 C5.90682796,17.0331199 5.69023815,17.1761509 5.4205185,17.3968306 C5.15079884,17.6175104 4.95055544,17.7605414 4.81978227,17.8259279 C4.98324873,17.4499551 5.26931074,16.8941775 5.67797688,16.1585784 L5.5798975,15.6436617 C4.89333838,16.134061 4.46833197,16.624453 4.30486551,17.1148524 C3.94523931,17.1148524 3.7654289,16.9677348 3.7654289,16.6734952 C3.7654289,16.4282955 4.11687651,16.0359819 4.81978227,15.4965426 C5.99674076,14.6301704 6.65059678,14.1397784 6.78136994,14.0253518 C7.46792906,13.4041793 7.79485707,12.8565749 7.76216378,12.3825222 C7.19003118,12.5132953 6.42992356,12.9955141 5.48181811,13.8291931 C4.27216634,14.8753784 3.53657832,15.4801952 3.27503198,15.6436617 C3.25868534,15.5782751 3.25051214,15.5210627 3.25051214,15.4720227 C3.25051214,15.2922096 3.42214934,15.083793 3.7654289,14.8467667 C4.10870846,14.6097403 4.28034567,14.3686309 4.28034567,14.1234312 C4.28034567,14.041698 4.26399926,13.9517928 4.23130597,13.8537129 C4.03514623,13.8537129 3.78177702,13.9354449 3.47119075,14.0989114 C3.04617797,14.2950711 2.80098196,14.4094959 2.73559538,14.4421892 C2.93175512,14.0989097 3.27502953,13.6739032 3.7654289,13.1671572 L3.7654289,12.6522405 C3.66734903,12.5868539 3.45484582,12.5623343 3.12791291,12.5786809 C2.53943367,12.5950276 2.30241086,12.611374 2.41683738,12.6277206 L2.2697183,12.6032008 C2.59665122,12.6032008 2.99713803,12.44791 3.47119075,12.1373237 L3.47119075,12.0392443 C3.4875374,12.006551 3.4957106,11.9738582 3.4957106,11.9411649 C3.4957106,11.8430851 3.4139786,11.7940459 3.25051214,11.7940459 C3.10339233,11.7940459 2.89088912,11.8389985 2.61299615,11.928905 C2.33510317,12.0188116 2.13077317,12.0637642 2,12.0637642 C2.34327956,11.6714447 3.11973358,11.2873043 4.32938536,10.9113314 C5.96404992,10.420932 6.86310195,10.13487 7.0265684,10.0531368 C7.0265684,9.74255054 6.8957972,9.58725973 6.63425087,9.58725973 C6.5034777,9.58725973 6.2705415,9.66081853 5.93543526,9.80793834 C5.60032903,9.95505816 5.36739282,10.028617 5.23661965,10.028617 C5.00776661,10.028617 4.75439741,9.94688496 4.47650443,9.7834185 C4.19861146,9.61995204 4.05966705,9.43196844 4.05966705,9.21946204 C4.05966705,8.36943647 4.31303626,7.35595964 4.81978227,6.17900116 C5.42460816,4.82222957 6.08663738,4.14385395 6.80588979,4.14385395 L8.59583854,4.14385395 C8.61218518,4.1602006 8.71026359,4.53616781 8.89007669,5.27176686 C9.00450321,5.74581958 9.06171561,6.12995999 9.06171561,6.42419962 C9.06171561,6.8492124 8.8410392,7.46628902 8.39967977,8.27544798 C7.95832034,9.08460694 7.73764393,9.74254956 7.73764393,10.2492956 C7.73764393,11.0175879 7.99918634,11.6224047 8.522279,12.0637642 C8.99633172,12.488777 9.62566814,12.7012802 10.4103071,12.7012802 C11.5382257,12.7012802 12.2983333,12.4724306 12.6906528,12.0147245 C13.0339324,11.6060583 13.2055696,10.8214311 13.2055696,9.66081927 C13.2055696,9.13772661 12.8132559,8.40622519 12.028617,7.46629307 C11.243978,6.52636094 10.8516644,5.65591512 10.8516644,4.85492948 C10.8516644,4.56068986 11.5545596,3.28567062 12.9603711,1.02983353 L13.6469268,1.20147245 C13.5488469,1.3649389 13.4425953,1.65917411 13.3281688,2.0841869 C13.4425953,2.05149361 13.6387521,1.9534152 13.9166451,1.78994875 C14.1454981,1.64282894 14.3334817,1.56927014 14.4806015,1.56927014 C14.5623348,1.56927014 14.6358936,1.59378974 14.7012802,1.64282967 C14.7176268,1.65917632 14.7258,1.67552272 14.7258,1.69186936 C14.7258,1.82264253 14.562336,2.02697254 14.2354031,2.30486551 L14.3825222,2.89334181 L14.4560817,2.89334181 C14.5378149,2.89334181 14.6931057,2.84430261 14.9219588,2.74622274 C15.1508118,2.64814286 15.322449,2.59910366 15.4368755,2.59910366 L15.5594748,2.62362351 C15.363315,2.80343661 15.118119,3.12219142 14.8238794,3.5798975 C14.8729193,3.64528408 14.9137853,3.70249648 14.9464786,3.75153642 C14.9791719,3.80057635 15.0609039,3.82509595 15.1916771,3.82509595 C15.3061036,3.82509595 15.5186068,3.73519075 15.8291931,3.55537765 C16.1397793,3.37556455 16.3359361,3.27748615 16.4176694,3.2611395 C16.4176694,3.57172577 16.2296858,3.89048058 15.8537129,4.21741349 L16.0989114,4.85492948 C16.2787245,4.5770365 16.4054091,4.4135725 16.478969,4.36453256 C16.5525289,4.31549263 16.7854651,4.25010702 17.1777846,4.1683738 C16.7691184,4.57703994 16.5729616,4.96118035 16.5893083,5.32080655 L16.5893083,5.46792563 C16.834508,5.46792563 17.2186484,5.27176882 17.741741,4.87944933 C17.7090478,5.02656914 17.6027961,5.24724554 17.422983,5.54148516 C17.2431699,5.83572479 17.1369183,6.06457439 17.1042251,6.22804085 C17.1369183,6.24438749 17.1696111,6.25256069 17.2023044,6.25256069 C17.2840377,6.25256069 17.4393285,6.19943489 17.6681815,6.0931817 C17.8970345,5.9869285 18.0768449,5.9338027 18.2076181,5.9338027 C17.9787651,6.37516213 17.3167359,6.82877474 16.2215106,7.29465414 C15.1262853,7.76053354 14.4152169,8.34491736 14.088284,9.04782312 C14.1700172,9.21128958 14.3171348,9.29302158 14.5296412,9.29302158 C14.6113745,9.29302158 15.2121047,8.99061317 16.3318499,8.38578728 C17.4515951,7.7809614 18.2076162,7.48672619 18.5999356,7.50307283 C18.3874293,7.73192587 18.0605012,7.96894868 17.6191418,8.21414836 L17.6191418,8.33674759 C17.6191418,8.4838674 17.7253934,8.55742621 17.9378998,8.55742621 C18.0523263,8.55742621 18.2198769,8.53699321 18.4405567,8.49612659 C18.6612364,8.45525998 18.828787,8.43482698 18.9432135,8.43482698 C18.9432135,8.59829343 18.8533083,8.71271824 18.6734952,8.77810482 C18.5590687,8.82714476 18.3956047,8.85166436 18.1830983,8.85166436 L17.7907807,9.21946204 C17.9215539,9.31754192 18.1463169,9.40744712 18.4650765,9.48918035 C18.7838361,9.57091358 19.0085991,9.66081878 19.1393723,9.75889865 C18.8778259,9.79159194 18.4691659,9.87332395 17.91338,10.0040971 C17.9297266,10.3146834 18.1177102,10.502667 18.4773364,10.5680536 C18.9840824,10.6497868 19.294664,10.7478652 19.4090906,10.8622917 L19.4090906,10.8622917 Z M16.3441098,6.74295761 C16.3441098,6.21986495 15.9354498,5.45158413 15.1181175,4.4380921 C14.4152118,3.52267995 13.7858754,2.87699713 13.2300894,2.50102428 L13.2300894,3.18757996 C14.3416613,4.46261832 15.3714845,5.68859836 16.31959,6.86555684 C16.3359366,6.8165169 16.3441098,6.7756509 16.3441098,6.74295761 L16.3441098,6.74295761 Z M13.6469268,4.34001272 C13.6469268,4.09481303 13.5815412,3.92317583 13.450768,3.82509595 C13.3853814,3.87413589 13.1483586,3.98038749 12.7396925,4.14385395 C12.4617995,4.24193382 12.3228551,4.42991743 12.3228551,4.70781041 C12.3228551,4.83858357 12.3514613,4.96118157 12.4086746,5.07560809 C12.4658878,5.19003461 12.494494,5.26359341 12.494494,5.29628671 L13.1810497,5.29628671 C13.2791296,5.1491669 13.3812946,4.98978949 13.4875478,4.81814971 C13.593801,4.64650993 13.6469268,4.48713253 13.6469268,4.34001272 L13.6469268,4.34001272 Z M14.6767603,5.49244547 L14.5296412,5.46792563 C14.0555885,5.46792563 13.6632749,5.73764123 13.3526886,6.27708054 C13.4998084,6.40785371 13.6796188,6.47323931 13.8921252,6.47323931 C14.3007914,6.26073291 14.5623338,5.93380491 14.6767603,5.49244547 L14.6767603,5.49244547 Z M15.2652366,6.522279 C14.6440641,6.65305216 14.2517505,6.91459457 14.088284,7.30691407 C14.088284,7.45403388 14.12915,7.56028548 14.2108832,7.62567206 C14.2926165,7.69105865 14.3743485,7.75644425 14.4560817,7.82183083 C14.6358948,7.46220463 14.9056104,7.02902501 15.2652366,6.522279 L15.2652366,6.522279 Z M10.1405888,2.42746474 C10.1405888,2.36207816 10.1324156,2.27625956 10.116069,2.17000636 C10.0997223,2.06375316 10.0915491,1.98610776 10.0915491,1.93706782 L9.25787438,1.93706782 C9.20883444,2.06784099 9.18431484,2.20678539 9.18431484,2.3539052 C9.18431484,2.41929179 9.19248804,2.51328359 9.20883468,2.63588343 C9.22518133,2.75848327 9.23335453,2.85247508 9.23335453,2.91786166 L10.0915491,2.77074258 C10.1242424,2.65631606 10.1405888,2.54189126 10.1405888,2.42746474 L10.1405888,2.42746474 Z M13.6469268,7.4295133 C13.2873006,6.98815386 12.935853,6.53862785 12.5925734,6.08092177 C12.0204408,5.34532272 11.7343788,4.83858431 11.7343788,4.56069133 C11.7343788,4.51165139 11.7507252,4.46261219 11.7834185,4.41357226 C11.7834185,4.51165213 11.7507257,4.65876973 11.6853391,4.85492948 C11.6199525,5.05108923 11.5872597,5.19820683 11.5872597,5.29628671 C11.5872597,5.90111259 11.7956763,6.45280361 12.2125158,6.9513763 C12.6293553,7.44994899 13.0421019,7.93625441 13.450768,8.41030713 L13.6469268,7.4295133 Z M17.3494235,8.92522389 C17.3494235,8.99061048 17.2840379,8.72089487 17.1532647,8.11606898 C16.957105,8.39396196 16.6955626,9.19084898 16.3686297,10.506754 C16.0416968,11.8226589 15.8782328,12.6767583 15.8782328,13.0690778 L15.8782328,13.8537129 C16.3686321,13.6902465 16.7527725,12.9546584 17.0306655,11.6469268 C17.2431719,10.6988213 17.3494235,9.79159611 17.3494235,8.92522389 L17.3494235,8.92522389 Z M16.000832,9.61177958 L14.8729191,9.44014066 C14.7584926,9.50552724 14.6032018,9.61177884 14.407042,9.75889865 L14.4806015,10.4209345 L15.8291931,10.4209345 L16.000832,9.61177958 Z M8.32612023,2.72170289 L7.63956455,2.50102428 C7.52513803,2.58275751 7.36167402,2.71352871 7.14916763,2.89334181 L8.32612023,2.72170289 Z M15.4123557,12.5296412 L15.4123557,11.6959665 C15.0036895,11.2873003 14.6277223,11.0747971 14.2844428,11.0584505 C14.0719364,11.2873035 13.9575116,11.5243263 13.9411649,11.769526 C14.2680978,12.0801123 14.7584899,12.3334815 15.4123557,12.5296412 L15.4123557,12.5296412 Z M12.028617,9.73437881 C12.028617,9.73437881 11.8814994,9.4728364 11.5872597,8.94974374 C10.8680073,7.69105203 10.3449225,6.47324519 10.0179896,5.29628671 C10.0179896,5.06743367 10.0588556,5.92561969 10.1405888,7.87087052 C9.89538914,8.18145679 9.65019314,8.4920384 9.40499345,8.80262466 C9.07806054,9.21129081 8.91459653,9.54639201 8.91459653,9.80793834 C8.91459653,10.7396971 9.31508334,11.2055696 10.116069,11.2055696 C11.3911073,11.2055696 12.028617,10.7151775 12.028617,9.73437881 L12.028617,9.73437881 Z M8.32612023,5.88476301 C8.32612023,5.75398984 8.26073463,5.52922684 8.12996147,5.21046725 C7.9991883,4.89170766 7.8847635,4.67511785 7.78668362,4.56069133 C7.6722571,5.55783671 7.4924467,6.44054234 7.24724701,7.20883468 C7.14916714,7.48672766 7.04291554,7.76461647 6.92848902,8.04250944 C6.78136921,8.43482894 6.70781041,8.70454455 6.70781041,8.85166436 C6.70781041,9.12955733 6.81406201,9.32571414 7.0265684,9.44014066 C7.89294062,8.21414223 8.32612023,7.0290282 8.32612023,5.88476301 L8.32612023,5.88476301 Z M6.56069133,5.63956455 L5.8496158,5.46792563 C5.8496158,5.50061892 5.8210096,5.57417772 5.76379634,5.68860424 C5.70658308,5.80303076 5.67797688,5.91745556 5.67797688,6.03188208 C5.67797688,6.3261217 5.86596048,6.47323931 6.24193333,6.47323931 L6.56069133,5.63956455 Z M6.83040963,6.93911638 L5.2611395,6.93911638 C5.24479285,7.31508923 5.35921766,7.53576563 5.60441734,7.60115222 C6.04577677,7.69923209 6.29097278,7.77279089 6.34001272,7.82183083 C6.66694563,7.49489792 6.83040963,7.20066271 6.83040963,6.93911638 L6.83040963,6.93911638 Z M13.2055696,14.9080663 C13.2055696,14.4503602 12.8214291,13.8618898 12.0531368,13.1426374 L12.0531368,14.0743915 C12.412763,14.8590305 12.7233446,15.3330761 12.9848909,15.4965426 C13.1320108,15.3657694 13.2055696,15.1696126 13.2055696,14.9080663 L13.2055696,14.9080663 Z M5.97221503,8.45934682 C5.74336199,8.23049378 5.56355159,8.11606898 5.43277842,8.11606898 C5.20392538,8.34492202 5.08950058,8.56559843 5.08950058,8.77810482 C5.08950058,8.97426457 5.31835018,9.19494097 5.77605626,9.44014066 C5.79240291,9.32571414 5.82918231,9.16225013 5.88639557,8.94974374 C5.94360883,8.73723735 5.97221503,8.57377334 5.97221503,8.45934682 L5.97221503,8.45934682 Z M11.4156208,15.7662609 L11.4156208,14.6628678 C11.4156208,14.4830547 11.3298022,14.2296855 11.1581624,13.9027526 C10.9865227,13.5758197 10.8271452,13.3469701 10.6800254,13.2161969 C10.6309855,14.0662225 10.5410803,14.9571013 10.4103071,15.8888601 L11.4156208,15.7662609 Z M14.9709985,15.6681815 C12.6497748,15.9460745 10.8353243,16.2893489 9.52759268,16.698015 C9.52759268,17.1393745 9.59297828,17.4744757 9.72375145,17.7033287 C9.8872179,17.6052488 10.1405871,17.5562096 10.4838667,17.5562096 C11.0559993,17.5562096 11.8651461,17.3600528 12.9113314,16.9677333 C14.0229033,16.5263739 14.7094521,16.0931943 14.9709985,15.6681815 L14.9709985,15.6681815 Z M6.70781041,10.9358513 L5.77605626,10.9358513 C5.62893645,10.9358513 5.50225185,11.0094101 5.39599865,11.1565299 C5.28974546,11.3036497 5.24479285,11.4507673 5.2611395,11.5978871 L5.2611395,11.6224069 C5.31017944,11.6387536 5.36739184,11.6469268 5.43277842,11.6469268 C5.98856437,11.6469268 6.41357078,11.409904 6.70781041,10.9358513 L6.70781041,10.9358513 Z M7.14916763,11.6959665 C6.56068839,11.7940464 6.07029637,11.941164 5.67797688,12.1373237 L5.8496158,12.8238794 C5.98038897,12.8075327 6.20923857,12.6522419 6.53617148,12.3580023 C6.8631044,12.0637627 7.0674344,11.8430863 7.14916763,11.6959665 L7.14916763,11.6959665 Z M8.22804085,13.3387961 C8.0318811,13.4041827 7.8112047,13.5267807 7.56600501,13.7065938 C7.28811203,13.9354469 7.14916763,14.1397769 7.14916763,14.31959 C7.14916763,14.6138296 7.31263164,14.7609472 7.63956455,14.7609472 L7.71312409,14.7609472 C7.97467042,14.4830542 8.14630762,14.0090086 8.22804085,13.3387961 L8.22804085,13.3387961 Z M5.21209981,13.4368755 L4.20678613,11.6469268 L3.98610751,11.7204863 L4.9914212,13.5104351 L5.21209981,13.4368755 Z M7.49244547,15.91338 C7.49244547,15.7335669 7.33306807,15.4679379 7.01430848,15.116485 C6.69554889,14.7650321 6.45443948,14.6056547 6.29097303,14.638348 L6.1193341,15.3003838 C6.52800025,15.70905 6.98569946,15.91338 7.49244547,15.91338 L7.49244547,15.91338 Z M11.4401407,9.73437881 C11.4401407,10.0286184 11.3420623,10.2738144 11.1459025,10.4699742 C10.9497428,10.6661339 10.7045468,10.7642123 10.4103071,10.7642123 C10.1487608,10.7642123 9.85452559,10.6089215 9.52759268,10.2983353 L9.52759268,9.17042235 C9.74009907,8.95791596 10.0343343,8.85166436 10.4103071,8.85166436 C10.6555068,8.85166436 10.888443,8.93748296 11.1091227,9.10912274 C11.3298025,9.28076252 11.4401407,9.48917912 11.4401407,9.73437881 L11.4401407,9.73437881 Z M10.9987834,9.80793834 C10.7699304,9.44831214 10.4920416,9.26850174 10.1651087,9.26850174 L10.116069,9.26850174 L9.96894991,10.1512162 L10.6555056,10.3228551 C10.7208922,10.2084286 10.835317,10.0367914 10.9987834,9.80793834 L10.9987834,9.80793834 Z" id="Shape"></path>
        </g>
    </g>
</svg>